<svg xmlns="http://www.w3.org/2000/svg" xmlns:xlink="http://www.w3.org/1999/xlink" width="751.088" height="538.002" viewBox="0 0 751.088 538.002"><defs><style>.a{opacity:0.4;fill:url(#a);}.b{fill:#f2f2f2;}.c{fill:#3f3d56;}.d{opacity:0.1;}.e,.k{fill:#f9a826;}.f{fill:#a8a8a8;}.g{opacity:0.2;}.h{fill:#ffb9b9;}.i{fill:#575a89;}.j{fill:#2f2e41;}.k{opacity:0.3;}</style><linearGradient id="a" x1="-0.075" y1="-0.285" x2="1.424" y2="1.683" gradientUnits="objectBoundingBox"><stop offset="0" stop-color="#3f2e70"/><stop offset="1" stop-color="#f36900"/></linearGradient></defs><g transform="translate(-1009.974 -210)"><rect class="a" width="189" height="189" rx="45" transform="translate(1493.938 617.164) rotate(-47)"/><g transform="translate(1009.974 209.998)"><circle class="b" cx="257.5" cy="257.5" r="257.5" transform="translate(134.026 0.002)"/><path class="c" d="M758.55,788.959c0,10.666-140.818,33.108-314.525,33.108S129.5,799.626,129.5,788.959s140.818-5.518,314.525-5.518S758.55,778.293,758.55,788.959Z" transform="translate(-129.5 -284.064)"/><path class="d" d="M758.55,788.959c0,10.666-140.818,33.108-314.525,33.108S129.5,799.626,129.5,788.959s140.818-5.518,314.525-5.518S758.55,778.293,758.55,788.959Z" transform="translate(-129.5 -284.064)"/><ellipse class="c" cx="314.5" cy="19" rx="314.5" ry="19" transform="translate(0.026 486.002)"/><path class="c" d="M851.689,659.413c0,43.595,27.349,78.871,61.147,78.871" transform="translate(-353.561 -245.969)"/><path class="e" d="M940.34,737.886c0-44.085,30.52-79.758,68.237-79.758" transform="translate(-381.065 -245.57)"/><path class="e" d="M883.809,665.142c0,41.41,17.44,74.92,38.993,74.92" transform="translate(-363.526 -247.746)"/><path class="c" d="M940.34,727.92c0-56.331,35.276-101.912,78.871-101.912" transform="translate(-381.065 -235.605)"/><path class="f" d="M921.69,772.459s8.672-.267,11.285-2.128,13.339-4.083,13.988-1.1,13.032,14.844,3.242,14.923-22.748-1.525-25.357-3.114S921.69,772.459,921.69,772.459Z" transform="translate(-375.278 -279.588)"/><path class="g" d="M950.379,785.219c-9.79.079-22.748-1.525-25.357-3.114-1.986-1.21-2.778-5.552-3.043-7.555l-.289.011s.549,6.994,3.158,8.583,15.566,3.193,25.357,3.114c2.826-.023,3.8-1.028,3.749-2.517C953.561,784.64,952.483,785.2,950.379,785.219Z" transform="translate(-375.279 -281.691)"/><path class="h" d="M702.135,289.26s8.823,18.529,5.294,27.353,13.235,18.529,13.235,18.529l22.059-12.353V306.906l-3.529-7.059s-14.118-7.941-12.353-20.294S702.135,289.26,702.135,289.26Z" transform="translate(-307.161 -126.951)"/><path class="d" d="M702.135,289.26s8.823,18.529,5.294,27.353,13.235,18.529,13.235,18.529l22.059-12.353V306.906l-3.529-7.059s-14.118-7.941-12.353-20.294S702.135,289.26,702.135,289.26Z" transform="translate(-307.161 -126.951)"/><path class="h" d="M665.99,407.888s-1.765,19.412-1.765,22.059-2.647,11.471-2.647,11.471-9.706,45-15.882,49.411-9.706,31.764,0,30,12.353-25.588,12.353-25.588l20.089-37.934,2.852-45.889Z" transform="translate(-287.781 -167.933)"/><path class="i" d="M683.478,351.6h-7.059s-7.059,42.353,0,44.117,20.294,1.765,20.294,1.765Z" transform="translate(-298.209 -150.47)"/><path class="h" d="M616.129,685.3l3.529,16.764,7.059-5.294-3.529-15-7.059,2.647Z" transform="translate(-191.155 -211.52)"/><path class="j" d="M696.942,487.2l-5.294,3.529s-2.647,30.882,3.529,54.706,10.588,52.058,10.588,52.058S716.354,668.082,719,669.846s19.412,2.647,20.294-.882-6.177-69.705-6.177-69.705-5.294-55.588-.882-62.647c0,0,14.118,60.882,18.529,67.058,0,0,6.176,67.058,9.706,68.823s20.294,2.647,21.176-.882-5.294-79.411-7.941-85.587-3.529-97.94-9.706-97.058S696.942,487.2,696.942,487.2Z" transform="translate(-303.733 -192.54)"/><circle class="h" cx="20.294" cy="20.294" r="20.294" transform="translate(383.504 129.662)"/><path class="i" d="M711.31,331.534l-4.412-7.941s-5.294-7.059-7.941-5.294-2.647,7.941-2.647,7.941S676.016,333.3,677.781,343s13.235,26.47,13.235,26.47,1.765,14.118,0,17.647-5.294,6.176-2.647,9.706,3.529,4.412,2.647,8.823-2.647,6.176-.882,7.941-.882,20.294-2.647,21.176,56.47,9.706,60.882,7.059,16.765-2.647,15.882-5.294-4.412-18.529-4.412-21.176,0-14.118-.882-15,.882-14.118.882-14.118l-4.412-37.059,14.118-22.059s-3.529-12.353-20.294-14.118-21.4-6.176-21.4-6.176-1.539,7.941-5.068,9.706S711.31,331.534,711.31,331.534Z" transform="translate(-299.572 -136.579)"/><path class="h" d="M809.329,377.187l5.294,39.705-11.471,57.353s-4.412,32.647-13.235,31.764,0-35.294,0-35.294l7.058-53.823s-11.471-27.353-8.823-30.882S809.329,377.187,809.329,377.187Z" transform="translate(-333.179 -158.408)"/><path class="j" d="M743.22,757.257s-11.47-6.176-14.118-5.294-5.294,13.235-5.294,13.235-20.294,15-7.059,18.529,18.529-4.412,18.529-4.412,13.235-7.059,13.235-8.823-1.765-13.235-1.765-13.235Z" transform="translate(-310.305 -274.656)"/><path class="j" d="M794.179,753.281s-5.294,29.117-1.765,30.882,18.529,4.412,20.294,0,1.765-15,.882-18.529-3.529-12.353-3.529-12.353Z" transform="translate(-334.794 -275.092)"/><path class="j" d="M700.241,230.78a4.708,4.708,0,0,0-2.431-.074,7.273,7.273,0,0,0-2.45,2c-2.024,1.921-4.915,2.522-7.552,3.432s-5.413,2.521-6.073,5.232a28.473,28.473,0,0,0-.288,3.293c-.393,3.2-2.833,6.078-2.4,9.271.285,2.086,1.772,3.855,2.077,5.938.34,2.322-.833,4.739-.179,6.993.641,2.209,2.811,3.555,4.81,4.693q1.286-8.162,3.089-16.232a5.866,5.866,0,0,1,1.1-2.682c1.774-2.01,5.254-.865,7.556-2.238.875-.522,1.524-1.382,2.442-1.821,2.66-1.271,5.537,1.545,8.485,1.572,1.3.012,2.728-.505,3.827.191a3.5,3.5,0,0,1,1.119,1.376c1.05,1.972,1.628,4.187,2.853,6.055s3.419,3.392,5.591,2.869c-.332-1.685.987-3.2,1.515-4.834.909-2.81-.577-5.861-.219-8.793.336-2.753,2.13-5.984.162-7.939a5.578,5.578,0,0,0-2.328-1.169C713.988,235.7,707.556,232,700.241,230.78Z" transform="translate(-299.983 -112.923)"/><path class="i" d="M794.109,331.134l8.823,3.529s11.471,37.059,8.823,37.059-26.47,6.176-26.47,3.529S787.05,331.134,794.109,331.134Z" transform="translate(-332.959 -144.12)"/><path class="c" d="M343.14,162H70v89.667H80.346v23.451L103.8,251.667H343.14Z" transform="translate(-21.718 -50.261)"/><path class="c" d="M343.14,512H70v89.667H80.346v23.451L103.8,601.667H343.14Z" transform="translate(-21.718 -158.849)"/><path class="c" d="M140,338H413.14v89.667H402.794v23.451l-23.451-23.451H140Z" transform="translate(-43.435 -104.865)"/><rect class="k" width="209.683" height="8.277" transform="translate(80.011 126.569)"/><rect class="k" width="104.842" height="8.277" transform="translate(80.011 142.433)"/><circle class="k" cx="11.726" cy="11.726" r="11.726" transform="translate(80.011 163.125)"/><rect class="e" width="209.683" height="8.277" transform="translate(121.396 246.585)"/><rect class="e" width="104.842" height="8.277" transform="translate(121.396 262.449)"/><circle class="e" cx="11.726" cy="11.726" r="11.726" transform="translate(121.396 283.142)"/><rect class="k" width="209.683" height="8.277" transform="translate(80.011 367.98)"/><rect class="k" width="104.842" height="8.277" transform="translate(80.011 383.845)"/><circle class="k" cx="11.726" cy="11.726" r="11.726" transform="translate(80.011 404.537)"/></g></g></svg>