<svg xmlns="http://www.w3.org/2000/svg" width="36" height="36" viewBox="0 0 36 36"><defs><style>.a{fill:#fff;}</style></defs><path class="a" d="M7.563,22.747a3.782,3.782,0,1,1-3.78-3.78h3.78v3.78Zm1.906,0a3.782,3.782,0,0,1,7.563,0v9.469a3.782,3.782,0,1,1-7.563,0V22.747ZM13.251,7.563a3.782,3.782,0,1,1,3.782-3.78v3.78H13.251Zm0,1.906a3.781,3.781,0,1,1,0,7.563H3.783a3.782,3.782,0,1,1,0-7.563h9.468Zm15.183,3.782a3.783,3.783,0,1,1,3.783,3.782H28.434V13.251Zm-1.9,0a3.782,3.782,0,0,1-7.565,0V3.783a3.782,3.782,0,1,1,7.564,0ZM22.747,28.434a3.783,3.783,0,1,1-3.78,3.783V28.434h3.78Zm0-1.9a3.782,3.782,0,0,1,0-7.565h9.469a3.782,3.782,0,1,1,0,7.564Z"/></svg>